<svg xmlns="http://www.w3.org/2000/svg" viewBox="0 0 32 32">
<rect width="32" height="32" rx="6" fill="#07070d"/>
<line x1="8" y1="6" x2="24" y2="9" stroke="#00D4FF" stroke-width=".7" opacity=".3"/>
<line x1="8" y1="6" x2="16" y2="17" stroke="#00D4FF" stroke-width=".7" opacity=".3"/>
<line x1="8" y1="6" x2="5" y2="21" stroke="#00D4FF" stroke-width=".7" opacity=".3"/>
<line x1="24" y1="9" x2="16" y2="17" stroke="#00D4FF" stroke-width=".7" opacity=".4"/>
<line x1="24" y1="9" x2="28" y2="22" stroke="#00D4FF" stroke-width=".7" opacity=".3"/>
<line x1="16" y1="17" x2="5" y2="21" stroke="#00D4FF" stroke-width=".7" opacity=".3"/>
<line x1="16" y1="17" x2="28" y2="22" stroke="#00D4FF" stroke-width=".7" opacity=".3"/>
<line x1="16" y1="17" x2="13" y2="28" stroke="#00D4FF" stroke-width=".7" opacity=".4"/>
<line x1="5" y1="21" x2="13" y2="28" stroke="#00D4FF" stroke-width=".7" opacity=".3"/>
<line x1="28" y1="22" x2="13" y2="28" stroke="#00D4FF" stroke-width=".7" opacity=".3"/>
<circle cx="8" cy="6" r="2.4" fill="#00D4FF" opacity=".7"/>
<circle cx="24" cy="9" r="2" fill="#00D4FF" opacity=".6"/>
<circle cx="16" cy="17" r="3.2" fill="#00D4FF"/>
<circle cx="5" cy="21" r="1.6" fill="#00D4FF" opacity=".5"/>
<circle cx="28" cy="22" r="2" fill="#00D4FF" opacity=".6"/>
<circle cx="13" cy="28" r="2.4" fill="#00D4FF" opacity=".7"/>
</svg>
